<?xml version="1.0" encoding="utf-8"?>
<!-- Generator: Adobe Illustrator 16.0.0, SVG Export Plug-In . SVG Version: 6.00 Build 0)  -->
<!DOCTYPE svg PUBLIC "-//W3C//DTD SVG 1.1//EN" "http://www.w3.org/Graphics/SVG/1.1/DTD/svg11.dtd">
<svg version="1.1" id="Layer_1" xmlns="http://www.w3.org/2000/svg" xmlns:xlink="http://www.w3.org/1999/xlink" x="0px" y="0px"
	 width="16px" height="16px" viewBox="0 0 16 16" enable-background="new 0 0 16 16" xml:space="preserve">
	<path d="M13.11,0.334H2.891c-1.405,0-2.556,1.15-2.556,2.556v10.221c0,1.406,1.149,2.555,2.556,2.555h10.22
		c1.405,0,2.555-1.148,2.555-2.555V2.89C15.665,1.485,14.516,0.334,13.11,0.334z M13.369,8h-2.494v6.707H8V8H6.616V5.806H8V4.38
		c0-1.937,0.836-3.088,3.112-3.088h2.623v2.375h-2.143c-0.636-0.001-0.714,0.331-0.714,0.951l-0.004,1.188h2.874L13.369,8z"  fill="#FFF"/>
</svg>
