<?xml version="1.0" encoding="utf-8"?>
<!-- Generated by IcoMoon.io -->
<!DOCTYPE svg PUBLIC "-//W3C//DTD SVG 1.1//EN" "http://www.w3.org/Graphics/SVG/1.1/DTD/svg11.dtd">
<svg version="1.1" xmlns="http://www.w3.org/2000/svg" xmlns:xlink="http://www.w3.org/1999/xlink" width="16" height="16" viewBox="0 0 16 16">
<path d="M8 3c0 0-2-2-8-2v12c6.063 0 8 2 8 2s1.938-2 8-2v-12c-6 0-8 2-8 2zM2 3c2.542 0.213 4.101 0.801 5 1.277v8.055c-0.899-0.475-2.458-1.063-5-1.277v-8.055zM14 11.055c-2.543 0.215-4.101 0.802-5 1.277v-8.055c0.899-0.477 2.457-1.064 5-1.277v8.055z" fill="#FFF"></path>
</svg>
