<?xml version="1.0" encoding="utf-8"?>
<!-- Generator: Adobe Illustrator 18.0.0, SVG Export Plug-In . SVG Version: 6.00 Build 0)  -->
<!DOCTYPE svg PUBLIC "-//W3C//DTD SVG 1.1//EN" "http://www.w3.org/Graphics/SVG/1.1/DTD/svg11.dtd">
<svg version="1.1" id="Layer_1" xmlns="http://www.w3.org/2000/svg" xmlns:xlink="http://www.w3.org/1999/xlink" x="0px" y="0px"
	 viewBox="55 268.9 486 276" enable-background="new 55 268.9 486 276" xml:space="preserve">
<g>
	<path fill="#FFFFFF" d="M197.6,415.2h-75.9c-13.2,0-24,10.8-24,24v76c0,13.2,10.8,24,24,24h75.9c13.2,0,24-10.8,24-24v-76
		C221.6,426,210.8,415.2,197.6,415.2z"/>
	<path fill="#FFFFFF" d="M197.6,415.2h-75.9c-13.2,0-24,10.8-24,24v76c0,13.2,10.8,24,24,24h75.9c13.2,0,24-10.8,24-24v-76
		C221.6,426,210.8,415.2,197.6,415.2z M174.1,453.1l-23.8,24.5l23.8,23.8v25.1l-48.9-48.9l48.9-49.6V453.1z"/>
</g>
<path fill="#FFFFFF" d="M473.6,414.7h-75.9c-13.2,0-24,10.8-24,24v76c0,13.2,10.8,24,24,24h75.9c13.2,0,24-10.8,24-24v-76
	C497.6,425.5,486.8,414.7,473.6,414.7z"/>
<path fill="#FFFFFF" d="M473.6,414.7h-75.9c-13.2,0-24,10.8-24,24v76c0,13.2,10.8,24,24,24h75.9c13.2,0,24-10.8,24-24v-76
	C497.6,425.5,486.8,414.7,473.6,414.7z M421.2,526v-25.1l23.8-24.5l-23.8-23.8v-25.1l48.9,48.9L421.2,526z"/>
<g>
	<path fill="#FFFFFF" d="M334.6,415.3h-76c-13.2,0-24,10.8-24,24v75.9c0,13.2,10.8,24,24,24h76c13.2,0,24-10.8,24-24v-75.9
		C358.6,426.1,347.8,415.3,334.6,415.3z"/>
	<path fill="#FFFFFF" d="M334.6,415.3h-76c-13.2,0-24,10.8-24,24v75.9c0,13.2,10.8,24,24,24h76c13.2,0,24-10.8,24-24v-75.9
		C358.6,426.1,347.8,415.3,334.6,415.3z M297,525.7l-49.6-48.9h25.1l24.5,23.8l23.8-23.8h25.1L297,525.7z"/>
</g>
<g>
	<path fill="#FFFFFF" d="M334.6,275.3h-76c-13.2,0-24,10.8-24,24v75.9c0,13.2,10.8,24,24,24h76c13.2,0,24-10.8,24-24v-75.9
		C358.6,286.1,347.8,275.3,334.6,275.3z"/>
	<path fill="#FFFFFF" d="M334.6,275.3h-76c-13.2,0-24,10.8-24,24v75.9c0,13.2,10.8,24,24,24h76c13.2,0,24-10.8,24-24v-75.9
		C358.6,286.1,347.8,275.3,334.6,275.3z M320.8,341.7l-24.5-23.8l-23.8,23.8h-25.1l48.9-48.9l49.6,48.9H320.8z"/>
</g>
</svg>
