<?xml version="1.0" encoding="iso-8859-1"?>
<!-- Generator: Adobe Illustrator 18.0.0, SVG Export Plug-In . SVG Version: 6.00 Build 0)  -->
<!DOCTYPE svg PUBLIC "-//W3C//DTD SVG 1.1//EN" "http://www.w3.org/Graphics/SVG/1.1/DTD/svg11.dtd">
<svg version="1.1" xmlns="http://www.w3.org/2000/svg" xmlns:xlink="http://www.w3.org/1999/xlink" x="0px" y="0px"
	 viewBox="0 0 129.5 129.5" enable-background="new 0 0 129.5 129.5" xml:space="preserve">
<g id="square1">
	
		<rect x="33.9" y="33.9" transform="matrix(0.7054 0.7088 -0.7088 0.7054 64.9469 -26.8128)" fill="#FFFFFF" width="61.8" height="61.8"/>
</g>
<g id="square2">
	<g>
		<path fill="#FFFFFF" d="M51.9,56.4l-7.7,7.7c0.2,0.2,0.3,0.3,0.5,0.5l5.1-5.1l7.4,7.4l-4.8,4.8c2.3,2.3-0.1-0.1,2.2,2.2
			c-3.6,3.6-7.3,7.3-10.9,10.9c-3.4-3.4-10.1-10.1-20.2-20.2c6.1-6.1,17.3-17.3,23.4-23.4L51.9,56.4z"/>
		<path fill="#FFFFFF" d="M72,52.2c-1.6-1.6-7.8-7.8-9.4-9.4L62,43.3l9.4,9.4l-0.1,4.7l-8.5,8.5L52.9,56l-5.1-15.5l16.9-16.9
			l20.2,20.2c-2.8,2.8-5.4,5.4-8.2,8.2L72,52.2z"/>
		<path fill="#FFFFFF" d="M71.8,73.9l-0.2,4.4l-7,7c0.2,0.2,0.3,0.3,0.5,0.5l7-7l4.4-0.1l0.2,0.2l5.3,5.3L81.7,89l-16.9,16.9
			c-6.7-6.7-13.5-13.5-20.2-20.2l16.9-16.9l4.9-0.2L71.8,73.9z"/>
		<path fill="#FFFFFF" d="M92.8,57.4l2.8-2.8l10.2,10.2C99.4,71.3,91.6,79,85.1,85.5l-7.5-12.4l-2.5,2.5c-2.8-2.8-5.6-5.6-8.4-8.4
			c-0.6-0.6-1.2-1.2-1.8-1.8c6.5-6.5,14.2-14.2,20.7-20.7L92.8,57.4z"/>
	</g>
	
		<rect x="27.7" y="27.7" transform="matrix(0.7071 0.7071 -0.7071 0.7071 64.7325 -26.8131)" fill="#FFFFFF" width="74" height="74"/>
	<polygon fill="#FFFFFF" points="9.7,64.7 19,55.5 19,45.8 0,64.7 19,83.7 19,74 	"/>
	<polygon fill="#FFFFFF" points="64.7,119.7 55.5,110.5 45.8,110.5 64.7,129.5 83.7,110.5 74,110.5 	"/>
</g>
<g id="arrow_x5F_left">
	<polygon fill="#FFFFFF" points="64.7,9.7 74,19 83.7,19 64.7,0 45.8,19 55.5,19 	"/>
	<polygon fill="#FFFFFF" points="119.7,64.7 110.5,74 110.5,83.7 129.5,64.7 110.5,45.8 110.5,55.5 	"/>
</g>
<g id="arrow_x5F_right">
</g>
<g id="arrow_x5F_top">
</g>
<g id="arrow_x5F_down">
</g>
<g id="f">
	<path fill="#FFFFFF" d="M52.5,71.8l4.8-4.8l-7.4-7.4l-5.1,5.1c-0.2-0.2-0.3-0.3-0.5-0.5l7.7-7.7L47,41.3
		c-6.1,6.1-17.3,17.3-23.4,23.4c10,10,16.7,16.7,20.2,20.2c3.6-3.6,7.3-7.3,10.9-10.9c-0.8-0.8-1.1-1.1-1.1-1.1
		C53.6,72.9,53.6,72.9,52.5,71.8z"/>
</g>
<g id="a">
	<path fill="#FFFFFF" d="M64.7,23.6L47.8,40.5L52.9,56l9.9,9.9l8.5-8.5l0.1-4.7L62,43.3l0.5-0.5c1.6,1.6,7.8,7.8,9.4,9.4l4.7-0.1
		c2.8-2.8,5.4-5.4,8.2-8.2L64.7,23.6z"/>
</g>
<g id="b">
	<path fill="#FFFFFF" d="M76.8,78.9l-0.2-0.2l-4.4,0.1l-7,7c-0.2-0.2-0.3-0.3-0.5-0.5l7-7l0.2-4.4l-5.4-5.4l-4.9,0.2L44.6,85.6
		c6.7,6.7,13.5,13.5,20.2,20.2L81.7,89l0.3-4.8L76.8,78.9z"/>
</g>
<g id="z">
	<path fill="#FFFFFF" d="M92.8,57.4l2.8-2.8l10.2,10.2C99.4,71.3,91.6,79,85.1,85.5l-7.5-12.4l-2.5,2.5c-2.8-2.8-5.6-5.6-8.4-8.4
		c-0.6-0.6-1.2-1.2-1.8-1.8c6.5-6.5,14.2-14.2,20.7-20.7L92.8,57.4z"/>
</g>
</svg>
