<?xml version="1.0" encoding="iso-8859-1"?>
<!-- Generator: Adobe Illustrator 18.0.0, SVG Export Plug-In . SVG Version: 6.00 Build 0)  -->
<!DOCTYPE svg PUBLIC "-//W3C//DTD SVG 1.1//EN" "http://www.w3.org/Graphics/SVG/1.1/DTD/svg11.dtd">
<svg class="side-logo" version="1.1" xmlns="http://www.w3.org/2000/svg" xmlns:xlink="http://www.w3.org/1999/xlink" x="0px" y="0px"
	 viewBox="0 0 52.3 52.3" enable-background="new 0 0 52.3 52.3" xml:space="preserve">
	<g class="square1">
		<rect id="square1_x5F_path" x="13.7" y="13.7" transform="matrix(0.7054 0.7088 -0.7088 0.7054 26.2496 -10.837)" fill="#FFFFFF" width="25" height="25"/>
	</g>
	<g class="square2">
		<rect id="square2_x5F_path" x="11.2" y="11.2" transform="matrix(0.7071 0.7071 -0.7071 0.7071 26.163 -10.8371)" fill="#FFFFFF" width="29.9" height="29.9"/>
	</g>
	<g class="arrows">
		<polygon id="arrow_x5F_left_1_" fill="#FFFFFF" points="3.9,26.2 7.7,22.4 7.7,18.5 0,26.2 7.7,33.8 7.7,29.9 	"/>
		<polygon id="arrow_x5F_down" fill="#FFFFFF" points="26.2,48.4 22.4,44.7 18.5,44.7 26.2,52.3 33.8,44.7 29.9,44.7 	"/>
		<polygon id="arrow_x5F_right_1_" fill="#FFFFFF" points="48.4,26.2 44.7,29.9 44.7,33.8 52.3,26.2 44.7,18.5 44.7,22.4 	"/>
		<polygon id="arrow_x5F_top_1_" fill="#FFFFFF" points="26.2,3.9 29.9,7.7 33.8,7.7 26.2,0 18.5,7.7 22.4,7.7 	"/>
	</g>
	<g class="letters">
		<path id="z_1_" fill="#FFFFFF" d="M37.5,23.2l1.1-1.1l4.1,4.1c-2.6,2.6-5.8,5.8-8.4,8.4l-3-5l-1,1c-1.1-1.1-2.3-2.3-3.4-3.4
		c-0.2-0.2-0.5-0.5-0.7-0.7c2.6-2.6,5.8-5.8,8.4-8.4L37.5,23.2z"/>
		<path id="b_1_" fill="#FFFFFF" d="M29,29.9L29,31.6l-2.8,2.8c0.1,0.1,0.1,0.1,0.2,0.2l2.8-2.8l1.8-0.1l0.1,0.1l2.1,2.1L33,36
		l-6.8,6.8c-2.7-2.7-5.4-5.4-8.2-8.2l6.8-6.8l2-0.1L29,29.9z"/>
		<path id="a_1_" fill="#FFFFFF" d="M29.1,21.1c-0.7-0.7-3.2-3.2-3.8-3.8l-0.2,0.2l3.8,3.8l-0.1,1.9l-3.4,3.4l-4-4l-2.1-6.3l6.8-6.8
		l8.2,8.2c-1.1,1.1-2.2,2.2-3.3,3.3L29.1,21.1z"/>
		<path id="f_1_" fill="#FFFFFF" d="M21,22.8l-3.1,3.1C18,26,18,26,18.1,26.1l2-2l3,3L21.2,29c0.9,0.9-0.1-0.1,0.9,0.9
		c-1.5,1.5-2.9,2.9-4.4,4.4c-1.4-1.4-4.1-4.1-8.2-8.2c2.5-2.5,7-7,9.5-9.5L21,22.8z"/>
	</g>
</svg>
