<?xml version="1.0" encoding="utf-8"?>
<!-- Generator: Adobe Illustrator 18.0.0, SVG Export Plug-In . SVG Version: 6.00 Build 0)  -->
<!DOCTYPE svg PUBLIC "-//W3C//DTD SVG 1.1//EN" "http://www.w3.org/Graphics/SVG/1.1/DTD/svg11.dtd">
<svg version="1.1" id="icons" xmlns="http://www.w3.org/2000/svg" xmlns:xlink="http://www.w3.org/1999/xlink" x="0px" y="0px"
	 viewBox="147.4 496.9 595.3 595.7" enable-background="new 147.4 496.9 595.3 595.7" xml:space="preserve">
<g id="twitter">
	<path id="twitter_2_" d="M147.4,496.9v146.4h146.4V496.9H147.4z M271.2,544c0,0.9,0,2.3,0,3.2c0,34.5-26.3,74.4-74.4,74.4
		c-14.5,0-28.6-4.5-39.9-11.8c2.3,0.5,4.1,0.5,6.3,0.5c12.2,0,23.6-4.1,32.2-11.3c-11.3,0-20.9-7.7-24.5-18.1c1.8,0.5,3.2,0.5,5,0.5
		c2.3,0,4.5-0.5,6.8-0.9c-11.8-2.3-20.9-13.1-20.9-25.4c0,0,0,0,0-0.5c3.6,1.8,7.7,3.2,11.8,3.2c-6.8-4.5-11.8-12.7-11.8-21.8
		c0-5,1.4-9.1,3.6-13.1c12.7,15.9,32.2,26.3,53.5,27.2c-0.5-1.8-0.5-4.1-0.5-5.9c0-14.5,11.8-25.8,25.8-25.8c7.7,0,14.1,3.2,19,8.2
		c5.9-1.4,11.3-3.2,16.8-6.3c-1.8,5.9-5.9,11.3-11.3,14.5c5.4-0.5,10.4-1.8,15-4.1l0,0l0,0l0,0C280.7,535.9,276.2,540.4,271.2,544z"
		/>
</g>
<g id="facebook">
	<path id="facebook_1_" d="M297,496.9v146.4h146.4V496.9H297z M427.1,574.9h-23.6v63.5h-27.2v-63.5h-13.1V554h13.1v-13.6
		c0-18.1,7.7-29,29.5-29h24.9v22.7h-20.4c-5.9,0-6.8,3.2-6.8,9.1v11.3h27.2L427.1,574.9z"/>
</g>
<g id="tumblr">
	<path d="M446.6,496.9v146.4h146.4V496.9H446.6z M556.3,622c-5,2.3-9.5,4.1-13.6,5c-4.1,0.9-8.6,1.4-13.1,1.4
		c-5.4,0-8.6-0.5-12.7-1.8s-7.7-3.2-10.4-5.9c-2.7-2.7-5-5-5.9-8.2c-0.9-2.7-1.8-6.8-1.8-12.2v-40.8h-15.9v-16.3
		c4.5-1.4,10-3.6,13.1-6.3c3.2-2.7,5.9-6.3,7.7-10c1.8-4.1,3.2-9.1,4.1-15h16.8V539h27.2v20.9h-27.2v29.9c0,6.8,0.5,11.3,0.9,13.1
		c0.9,1.8,2.3,3.6,4.1,4.5c2.7,1.4,5.4,2.3,9.1,2.3c5.9,0,11.8-1.8,17.7-5.9L556.3,622L556.3,622z"/>
</g>
<g id="flickr">
	<path id="flickr_1_" d="M596.2,496.9v146.4h146.4V496.9H596.2z M637.5,592.5c-12.7,0-22.7-10-22.7-22.7s10-22.7,22.7-22.7
		c12.7,0,22.7,10,22.7,22.7S650.2,592.5,637.5,592.5z M701,592.5c-12.7,0-22.7-10-22.7-22.7s10-22.7,22.7-22.7s22.7,10,22.7,22.7
		S713.7,592.5,701,592.5z"/>
</g>
<g id="instagram">
	<path d="M220.4,738.1c10.4,0,18.6-8.2,18.6-18.6c0-1.8-0.5-4.1-0.9-5.9h-34.5c-0.5,1.8-0.9,4.1-1.4,5.9
		C202.3,729.9,210.4,738.1,220.4,738.1z"/>
	<path d="M248.5,719.5c0,15-12.2,27.2-27.2,27.2c-15,0-27.2-12.2-27.2-27.2c0-1.8,0.5-4.1,0.5-5.9H185v36.3c0,3.2,2.7,5.9,5.9,5.9
		h60.3c3.2,0,5.9-2.7,5.9-5.9v-36.3H248C248,715.4,248.5,717.7,248.5,719.5z"/>
	<path d="M147.4,646.5v146.4h146.4V646.5H147.4z M268.9,752.1c0,9.1-7.3,16.3-16.3,16.3h-64.8c-9.1,0-16.3-7.3-16.3-16.3v-64.8
		c0-9.1,7.3-16.3,16.3-16.3h64.8c9.1,0,16.3,7.3,16.3,16.3V752.1z"/>
	<path d="M253.9,683.7H248c-1.8,0-3.2,1.4-3.2,3.2v5.9c0,1.8,1.4,3.2,3.2,3.2h5.9c1.8,0,3.2-1.4,3.2-3.2v-5.9
		C257.1,685,255.8,683.7,253.9,683.7z"/>
</g>
<g id="googlePlus">
	<path id="googleplus" d="M297,646.5v146.4h146.4V646.5H297z M368.2,693.6c0,6.3-3.6,11.8-8.6,15.9c-5,3.6-5.9,5.4-5.9,8.6
		c0,2.7,5.4,7.7,8.2,9.5c8.2,5.9,10.9,10.9,10.9,19.9c0,11.3-10.9,22.2-30.4,22.2c-16.8,0-31.3-7.3-31.3-18.1
		c0-11.3,13.1-22.2,30.4-22.2c1.8,0,3.6,0,5.4,0c-2.3-2.3-4.1-5-4.1-8.6c0-2.3,0.5-4.1,1.4-5.9c-0.9,0-1.8,0-2.7,0
		c-14.1,0-23.6-10-23.6-22.2c0-12.2,13.1-22.7,26.7-22.7c7.7,0,30.8,0,30.8,0l-7.3,5.9h-10C364.6,678.2,368.2,685.9,368.2,693.6z
		 M428.9,699.5h-22.2v22.2h-7.3v-22.2h-22.2v-7.3h22.2v-22.2h7.3v22.2h22.2V699.5z"/>
	<path d="M341,674.6c-7.7-0.5-13.1,7.7-11.8,18.1c1.4,10,9.1,18.6,16.8,19c7.7,0.5,13.1-8.2,11.8-18.1
		C356.4,683.2,348.7,675.1,341,674.6z"/>
	<path d="M345.1,732.2c-11.8-0.5-22.2,7.3-22.2,15.9c0,9.1,8.6,16.3,20.4,16.3c16.3,0,22.2-6.8,22.2-15.9c0-0.9,0-2.3-0.5-3.2
		c-1.4-5-5.9-7.7-12.2-11.8C350.5,732.6,347.8,732.2,345.1,732.2z"/>
</g>
<g id="behance">
	<path d="M547.7,711.3c-11.3,0-13.1,11.8-13.1,11.8h24.9C559.5,723.1,559.1,711.3,547.7,711.3z"/>
	<path d="M491.5,723.1h-22.2v20.4h20.9c3.2,0,9.1-0.9,9.5-10C499.7,723.1,491.5,723.1,491.5,723.1z"/>
	<path d="M496.5,702.3c0-7.7-5.4-7.7-5.4-7.7h-2.7h-19l-0.5,16.8h20.9C493.3,711.3,496.5,710,496.5,702.3z"/>
	<path d="M446.6,646.5v146.4h146.4V646.5H446.6z M531.4,685.5h31.3v9.5h-31.3V685.5z M515.5,734.9c0,23.1-24,22.2-24,22.2h-22.2
		h-0.5h-16.8v-76.2h16.8h0.5h22.2c11.8,0,21.3,6.8,21.3,20.4S501,715.9,501,715.9C516.4,715.9,515.5,734.9,515.5,734.9z
		 M574.5,733.1H535c0,14.1,13.1,13.1,13.1,13.1c12.7,0,12.2-8.2,12.2-8.2h13.1c0,21.8-25.8,20.4-25.8,20.4c-30.8,0-29-29-29-29
		s0-29,29-29C578.6,700.4,574,733.5,574.5,733.1z"/>
</g>
<g id="github">
	<g id="githuib">
		<path d="M703.2,711.8c-2.3-0.9-4.5-1.4-7.3-1.8c-2.7,0-5.4,0-7.7,0c-2.3,0-5.4,0.5-9.1,0.9c-3.6,0.5-6.8,0.5-9.5,0.5
			s-5.9,0-9.5-0.5c-3.6-0.5-6.8-0.5-9.1-0.9c-2.3-0.5-5,0-7.7,0s-5,0.5-7.3,1.8c-2.3,1.4-4.1,2.3-5.4,4.1
			c-5.4,5.9-8.2,12.7-8.2,19.9c0,4.1,0.5,8.2,1.4,11.3c0.9,3.2,1.8,6.3,3.6,8.6c1.4,2.3,3.2,4.1,5.9,5.9c2.3,1.4,5,2.7,7.3,3.6
			c2.3,0.9,5.4,1.4,9.1,1.8c3.6,0.5,6.8,0.9,10,0.9c2.7,0,6.3,0,10.9,0c4.5,0,8.2,0,10.9,0s6.3-0.5,10-0.9c3.6-0.5,6.8-1.4,9.1-1.8
			c2.3-0.9,4.5-2.3,7.3-3.6c2.7-1.4,4.5-3.6,5.9-5.9c1.4-2.3,2.7-5,3.6-8.6c0.9-3.2,1.4-7.3,1.4-11.3c0-7.3-2.7-14.1-8.2-19.9
			C707.3,714,705,712.7,703.2,711.8z M645.2,744c-4.5,0-8.2-5.4-8.2-12.2s3.6-12.2,8.2-12.2s8.2,5.4,8.2,12.2
			C653.4,738.5,649.7,744,645.2,744z M676.9,756.7c-2.7,2.7-5,3.6-7.3,3.6s-5-1.4-7.3-3.6c-0.9-0.9-0.9-2.7,0-3.6
			c0.9-0.9,2.7-0.9,3.6,0c1.4,1.4,2.7,2.3,3.6,2.3s2.3-0.9,3.6-2.3c0.9-0.9,2.7-0.9,3.6,0C677.8,753.9,677.8,755.8,676.9,756.7z
			 M693.7,744c-4.5,0-8.2-5.4-8.2-12.2s3.6-12.2,8.2-12.2c4.5,0,8.2,5.4,8.2,12.2C701.9,738.5,698.2,744,693.7,744z"/>
		<path d="M596.2,646.5v146.4h146.4V646.5H596.2z M732.7,738.5c-0.9,5-2.7,9.5-4.5,13.1c-1.8,3.6-4.5,7.3-7.3,10
			c-3.2,2.7-6.3,5-10,6.8c-3.6,1.8-7.7,3.2-12.2,4.5c-4.5,1.4-9.1,1.8-14.1,2.3c-5,0.5-10,0.9-15.4,0.9c-5.4,0-10.9-0.5-15.4-0.9
			c-4.5-0.5-9.1-1.4-13.6-2.3c-4.5-1.4-8.6-2.7-12.2-4.5s-6.8-4.1-10-6.8c-3.2-2.7-5.4-6.3-7.3-10c-1.8-3.6-3.6-8.2-4.5-13.1
			c-0.9-5-1.8-10.9-1.8-17.2l0,0c0-11.3,3.6-21.3,10.4-29c-0.5-0.9-0.9-2.3-0.9-3.6c-0.5-1.4-0.5-3.6-0.9-5.9
			c-0.5-2.7,0-5.4,0.5-9.1c0.5-3.6,1.4-6.8,2.7-10.4c0,0,0.5,0,0.9-0.5c0.5,0,1.4,0,3.2,0s3.6,0.5,5.4,1.4c1.8,0.5,4.5,1.8,7.7,3.6
			c3.2,1.8,6.8,4.1,10.4,6.8c6.3-1.8,14.5-3.6,25.4-3.6c10.9,0,19,1.8,25.4,3.6c3.6-2.7,6.8-5,10.4-6.8c3.6-1.8,5.9-2.7,7.7-3.6
			c2.3-0.5,3.6-0.9,5.4-1.4c1.4-0.5,2.7-0.5,3.2,0h0.9c1.4,3.6,2.3,6.8,2.7,10.4c0.5,3.2,0.5,6.3,0.5,9.1c-0.5,2.7-0.5,4.5-0.9,5.9
			c-0.5,1.4-0.5,2.7-0.9,3.6c6.8,8.2,10.4,18.1,10.4,29C734.1,727.6,733.6,733.5,732.7,738.5z"/>
	</g>
</g>
<path id="linkedIn" d="M147.4,796.6V943h146.4V796.6H147.4z M202.3,914.9h-18.1v-63.5h18.1V914.9z M193.2,842.3
	c-5,0-9.1-4.1-9.1-9.1c0-5,4.1-9.1,9.1-9.1c5,0,9.1,4.1,9.1,9.1C202.3,838.7,198.2,842.3,193.2,842.3z M265.7,914.9h-18.1v-36.3
	c0-5-4.1-9.1-9.1-9.1c-5,0-9.1,4.1-9.1,9.1v36.3h-18.1v-63.5h18.1v11.3c3.6-5,9.5-11.3,15.9-11.3c11.3,0,20.4,10,20.4,22.7V914.9z"
	/>
<g id="soundcloud">
	<path id="soundcloud_2_" d="M297,796.6V943h146.4V796.6H297z M312.9,885.9h-4.1l-1.8-8.2l1.8-8.2h4.1l1.8,8.2L312.9,885.9z
		 M329.2,894h-4.1l-1.8-16.3l1.8-16.3h4.1l1.8,16.3L329.2,894z M345.5,894h-4.1l-1.8-20.9l1.8-19.9h4.1l1.8,20.4L345.5,894z
		 M361.8,894h-4.1l-1.8-28.6l1.8-28.6h4.1l1.8,28.6L361.8,894z M420.3,894c-0.5,0-46.2,0-46.7,0c-0.9,0-1.8-0.9-1.8-1.8V841
		c0-0.9,0.5-1.4,1.8-1.8c3.2-1.4,6.8-1.8,10.9-1.8c15.4,0,28.1,11.3,29.5,25.8c1.8-0.9,4.1-1.4,6.3-1.4l0,0
		c9.1,0,16.8,7.3,16.8,16.3C437.1,887.2,429.4,894,420.3,894z"/>
</g>
<g id="vimeo">
	<path d="M446.6,796.6V943h146.4V796.6H446.6z M569,850.5L569,850.5c-5.9,33.1-39,61.2-48.5,67.6c-9.5,6.3-19-2.7-22.2-9.5
		c-3.6-7.7-15-49.9-18.1-53c-2.7-3.6-11.8,3.6-11.8,3.6l-4.1-5.4c0,0,18.1-21.3,31.7-24c14.5-2.7,14.5,22.2,17.7,36.3
		c3.2,13.6,5.4,21.3,8.6,21.3c2.7,0,8.6-7.7,14.5-19c6.3-11.3-0.5-21.8-12.2-14.5C529.6,824.2,574.9,817.4,569,850.5z"/>
</g>
<path id="pinterest" d="M596.2,796.6V943h146.4V796.6H596.2z M676.5,894c-6.8-0.5-9.5-3.6-14.5-6.8c-2.7,15-6.3,29-16.8,36.7
	c-3.2-22.7,4.5-39.4,8.2-57.6c-6.3-10.4,0.9-31.3,14.1-26.3c16.3,6.3-14.1,39,6.3,43.1c20.9,4.1,29.5-36.7,16.8-49.9
	c-19-19-54.9-0.5-50.3,26.7c0.9,6.8,8.2,8.6,2.7,18.1c-12.2-2.7-15.9-12.2-15.4-24.9c0.9-20.9,18.6-35.4,36.7-37.2
	c22.7-2.7,44,8.2,47.2,29.9C714.1,870,701,895.8,676.5,894z"/>
<g id="dribble">
	<path d="M256.7,978.8c-9.5-8.6-22.2-13.6-35.8-13.6c-4.5,0-8.6,0.5-12.7,1.4c1.4,1.8,11.3,15.4,20.4,31.7
		C247.6,991.5,255.8,980.2,256.7,978.8z"/>
	<path d="M217.7,1001.9L217.7,1001.9c-9.1-15.9-18.6-29.5-19.9-31.3c-15,7.3-26.3,21.3-29.9,38.1
		C170.1,1008.3,192.3,1008.7,217.7,1001.9z"/>
	<path d="M256.7,978.8L256.7,978.8L256.7,978.8z"/>
	<path d="M229.9,1028.2L229.9,1028.2c-30.4,10.4-41.7,31.7-42.6,34c9.1,7.3,20.9,11.3,33.1,11.3c7.7,0,14.5-1.4,21.3-4.5
		C240.8,1064.5,237.6,1048.2,229.9,1028.2L229.9,1028.2z"/>
	<path d="M224.5,1020.1L224.5,1020.1c0.9-0.5,1.4-0.5,2.3-0.5c-1.4-3.2-2.7-6.3-4.5-9.1c-27.2,8.2-53.5,7.7-55.8,7.7
		c0,0.5,0,0.9,0,1.8c0,14.1,5.4,26.7,14.1,36.3C181.4,1053.6,196.4,1029.1,224.5,1020.1z"/>
	<path d="M147.4,946.2v146.4h146.4V946.2H147.4z M220.4,1083.1c-34.9,0-63.5-28.6-63.5-63.5s28.6-63.5,63.5-63.5
		s63.5,28.6,63.5,63.5C283.9,1054.5,255.8,1083.1,220.4,1083.1z"/>
	<path d="M232.2,1006.5L232.2,1006.5c1.4,2.7,2.3,5,3.6,7.7c0.5,0.9,0.9,1.8,1.4,2.7c18.1-2.3,35.8,1.4,37.6,1.8
		c0-12.7-4.5-24.5-12.2-33.5C261.2,987,252.1,998.3,232.2,1006.5z"/>
	<path d="M240.3,1026c7.3,19.5,10,35.4,10.4,38.5c12.2-8.2,20.9-21.3,23.1-36.3C272.1,1027.3,257.1,1023.2,240.3,1026z"/>
</g>
<g id="ello">
	<path d="M297,946.2v146.4h146.4V946.2H297z M370,1076.7c-31.5,0-57.1-25.6-57.1-57.1s25.6-57.1,57.1-57.1
		c31.5,0,57.1,25.6,57.1,57.1S401.6,1076.7,370,1076.7z"/>
	<path d="M404.9,1027.8c-4.1,15.9-18.6,27.2-34.9,27.2c-16.3,0-30.8-11.3-34.9-27.2c-0.5-2.3-2.7-3.6-5-3.2c-2.3,0.5-3.6,2.7-3.2,5
		c5,19.5,22.7,33.5,43.1,33.5c20.4,0,38.1-14.1,43.1-33.5c0.5-1.8-0.9-4.5-3.2-5C408.1,1024.2,405.4,1025.5,404.9,1027.8z"/>
</g>
<g id="skype">
	<path d="M446.6,946.2v146.4h146.4V946.2H446.6z M550.4,1085.8c-7.3,0-13.6-1.8-19.5-5.4c-3.6,0.5-7.3,0.9-11.3,0.9
		c-34,0-61.7-27.7-61.7-61.7c0-3.2,0.5-6.3,0.9-9.5c-3.6-5.4-5.9-12.7-5.9-19.9c0-20.4,16.3-36.7,36.7-36.7c7.3,0,14.1,2.3,19.9,5.9
		c3.2-0.5,6.8-0.9,10-0.9c34,0,61.7,27.7,61.7,61.7c0,2.7,0,5.4-0.5,8.2c4.1,5.9,6.3,12.7,6.3,20.9
		C587.2,1069.5,570.9,1085.8,550.4,1085.8z"/>
	<path d="M511.5,1007.8c-18.1-4.5-8.2-19.9,6.3-19.5c14.1,0.5,21.3,15.4,27.7,14.5c6.3-0.9,11.8-10.4,1.8-19
		c-9.1-7.3-19.9-11.3-36.7-10c-13.1,1.4-25.8,9.5-27.2,26.3c-1.8,16.3,18.1,24.9,33.5,27.2c10.9,1.8,25.8,6.8,16.8,17.2
		c-8.2,9.1-23.6,3.6-27.7,0.9c-4.1-2.7-8.6-11.8-16.3-11.3c-7.3,0.5-11.3,10.9-1.8,19.5c8.2,8.2,17.7,12.2,37.2,11.3
		c19.9-0.9,37.6-18.1,30.4-34.5C548.6,1014.2,529.1,1012.4,511.5,1007.8z"/>
</g>
<path id="mail" d="M596.2,946.2v146.4h146.4V946.2H596.2z M623.4,973.4h92c1.8,0,3.2,0.5,4.5,0.9l-50.8,59.4l-50.8-59.4
	C620.3,973.8,621.6,973.4,623.4,973.4z M611.7,1054.1v-68.9c0-0.5,0-0.5,0-0.9l33.5,39.4l-33.5,33.5
	C612.1,1055.9,611.7,1055,611.7,1054.1z M715.5,1065.4h-92c-0.9,0-1.8,0-3.2-0.5l32.6-32.6l16.3,19l16.3-19l32.6,32.6
	C717.3,1065.4,716.4,1065.4,715.5,1065.4z M726.4,1057.2l-33.5-33.5l33.5-39.4c0,0.5,0,0.5,0,0.9l0.5,68.9
	C726.8,1055,726.8,1055.9,726.4,1057.2z"/>
</svg>
